<svg id="Capa_1" enable-background="new 0 0 512 512" height="512" viewBox="0 0 512 512" width="512" xmlns="http://www.w3.org/2000/svg"><g><path d="m206.606 124.393c-5.857-5.857-15.355-5.857-21.213 0l-30 30c-5.858 5.858-5.858 15.355 0 21.213l30 30c5.858 5.858 15.355 5.858 21.213 0s5.858-15.355 0-21.213l-19.393-19.393 19.393-19.393c5.859-5.858 5.859-15.356 0-21.214z"/><path d="m356.606 175.607c5.858-5.858 5.858-15.355 0-21.213l-30-30c-5.857-5.857-15.355-5.857-21.213 0-5.858 5.858-5.858 15.355 0 21.213l19.394 19.393-19.393 19.393c-5.858 5.858-5.858 15.355 0 21.213s15.355 5.858 21.213 0z"/><path d="m285.552 108.638c2.01-8.037-2.877-16.181-10.914-18.19-8.026-2.007-16.181 2.876-18.189 10.914l-30 120c-2.01 8.037 2.877 16.181 10.914 18.19 8.004 2.001 16.173-2.845 18.189-10.914z"/><path d="m421 165c0-90.981-74.019-165-165-165s-165 74.019-165 165c0 50 24.401 82.536 48 114 18.787 25.049 36.66 48.894 40.998 81h-13.998c-8.284 0-15 6.716-15 15s6.716 15 15 15h15v32h-15c-8.284 0-15 6.716-15 15s6.716 15 15 15h15v15c0 24.813 20.187 45 45 45h60c24.813 0 45-20.187 45-45v-15h15c8.284 0 15-6.716 15-15s-6.716-15-15-15h-15v-32h15c8.284 0 15-6.716 15-15s-6.716-15-15-15h-13.998c4.337-32.106 22.211-55.951 40.998-81 23.599-31.464 48-64 48-114zm-120 302c0 8.271-6.729 15-15 15h-60c-8.271 0-15-6.729-15-15v-15h90zm-90-45v-32h90v32zm90.773-62h-91.546c-4.293-41.726-26.076-70.799-47.227-99-21.599-28.799-42-56-42-96 0-74.439 60.561-135 135-135s135 60.561 135 135c0 40-20.401 67.201-42 96-21.151 28.201-42.934 57.274-47.227 99z"/></g></svg>