<?xml version="1.0" encoding="UTF-8"?>
<svg xmlns="http://www.w3.org/2000/svg" id="Layer_3" data-name="Layer 3" viewBox="0 0 64 64" width="512" height="512"><path d="M34.319,32.4a5,5,0,1,0-4.638,0A7.007,7.007,0,0,0,25,39a1,1,0,0,0,1,1H38a1,1,0,0,0,1-1A7.007,7.007,0,0,0,34.319,32.4ZM32,25a3,3,0,1,1-3,3A3,3,0,0,1,32,25ZM27.1,38a5,5,0,0,1,9.8,0Z"/><path d="M53,43a9.953,9.953,0,0,0-6.324,2.261l-4.814-4.814a12.933,12.933,0,0,0,3.112-7.927l10.212-.378a3.972,3.972,0,1,0-.089-2l-10.188.377a13,13,0,0,0-5.792-9.387l1.911-3.474a6.008,6.008,0,1,0-1.752-.964l-1.912,3.476a12.909,12.909,0,0,0-13.811,1.966l-4.814-4.814a10.016,10.016,0,1,0-1.414,1.414l4.814,4.814A12.858,12.858,0,0,0,19.232,34.4l-8.783,2.364A4.961,4.961,0,1,0,11,39c0-.1-.024-.2-.031-.3l8.789-2.366a13.052,13.052,0,0,0,5.559,6.8L23.2,47.36a7.015,7.015,0,1,0,1.788.9L27.1,44.034a12.926,12.926,0,0,0,13.347-2.173l4.814,4.814A9.995,9.995,0,1,0,53,43Zm6-14a2,2,0,1,1-2,2A2,2,0,0,1,59,29ZM43,8a4,4,0,1,1-4,4A4,4,0,0,1,43,8ZM6,42a3,3,0,1,1,3-3A3,3,0,0,1,6,42ZM26,54a5,5,0,1,1-5-5A5.006,5.006,0,0,1,26,54ZM3,11a8,8,0,1,1,13.927,5.354A.977.977,0,0,0,17,16a5.958,5.958,0,0,0-1.756-4.243A6.031,6.031,0,0,0,13.9,10.745a4,4,0,1,0-5.789,0A6,6,0,0,0,5,16a1,1,0,0,0,.07.351A7.961,7.961,0,0,1,3,11Zm8-1a2,2,0,1,1,2-2A2,2,0,0,1,11,10Zm0,2a4,4,0,0,1,3.873,3H7.126A4.007,4.007,0,0,1,11,12ZM5.65,16.93A.988.988,0,0,0,6,17H16a.978.978,0,0,0,.355-.072,7.95,7.95,0,0,1-10.7,0ZM21,32A11,11,0,1,1,32,43,11.013,11.013,0,0,1,21,32ZM47.65,58.93A.988.988,0,0,0,48,59H58a.978.978,0,0,0,.355-.072,7.95,7.95,0,0,1-10.7,0ZM53,52a2,2,0,1,1,2-2A2,2,0,0,1,53,52Zm0,2a4,4,0,0,1,3.873,3H49.126A4.007,4.007,0,0,1,53,54Zm5.926,4.354A.977.977,0,0,0,59,58a5.958,5.958,0,0,0-1.756-4.243A6.031,6.031,0,0,0,55.9,52.745a4,4,0,1,0-5.789,0A6,6,0,0,0,47,58a1,1,0,0,0,.07.351,8,8,0,1,1,11.857,0Z"/></svg>
