<svg height="512pt" viewBox="-41 0 512 512" width="512pt" xmlns="http://www.w3.org/2000/svg"><g fill-rule="evenodd"><path d="m376.132812 154.824219c-4.25-4.808594-8.699218-9.402344-13.320312-13.789063l26.949219-30.867187 14.4375 12.601562c4.160156 3.632813 10.476562 3.203125 14.109375-.957031 3.632812-4.160156 3.203125-10.476562-.957032-14.109375l-43.941406-38.355469c-4.15625-3.632812-10.476562-3.203125-14.105468.957032-3.632813 4.160156-3.203126 10.476562.957031 14.109374l14.433593 12.601563-27.019531 30.953125c-27.785156-21.824219-60.59375-36.5625-95.582031-42.667969v-19.664062h27.398438c5.523437 0 10-4.480469 10-10v-45.636719c0-5.523438-4.476563-10-10-10h-129.078126c-5.519531 0-10 4.476562-10 10v45.636719c0 5.519531 4.480469 10 10 10h27.402344v19.664062c-34.992187 6.105469-67.796875 20.839844-95.582031 42.667969l-27.023437-30.953125 14.4375-12.605469c4.160156-3.628906 4.589843-9.945312.957031-14.105468-3.632813-4.160157-9.949219-4.589844-14.109375-.957032l-21.910156 19.125c-.019532.015625-.039063.035156-.058594.050782-.019532.019531-.039063.035156-.058594.054687l-21.910156 19.125c-4.160156 3.632813-4.589844 9.949219-.957032 14.109375 3.632813 4.160156 9.949219 4.589844 14.109376.957031l14.433593-12.601562 26.953125 30.871093c-4.625 4.382813-9.074218 8.976563-13.320312 13.785157-34.679688 39.269531-53.777344 89.777343-53.777344 142.222656 0 102.4375 72.847656 191.128906 173.210938 210.886719 5.417968 1.066406 10.675781-2.460938 11.742187-7.878906 1.066406-5.417969-2.460937-10.675782-7.878906-11.742188-91.015625-17.921875-157.074219-98.359375-157.074219-191.265625 0-97.414063 72.710938-180.496094 169.128906-193.25 4.972656-.660156 8.6875-4.898437 8.6875-9.914063v-38.246093c0-5.523438-4.476562-10-10-10h-27.398437v-25.636719h109.074219v25.636719h-27.398438c-5.523438 0-10 4.476562-10 10v38.246093c0 5.015626 3.714844 9.253907 8.6875 9.914063 96.417969 12.753906 169.128906 95.835937 169.128906 193.25 0 92.90625-66.058594 173.34375-157.074218 191.265625-5.417969 1.066406-8.945313 6.324219-7.878907 11.742188.9375 4.765624 5.117188 8.070312 9.800781 8.070312.640626 0 1.292969-.0625 1.941407-.191406 100.363281-19.757813 173.210937-108.449219 173.210937-210.886719 0-52.445313-19.097656-102.953125-53.777344-142.222656zm0 0"/><path d="m155.230469 232.460938c-3.90625-3.902344-10.234375-3.902344-14.140625 0l-57.515625 57.511718c-3.902344 3.90625-3.902344 10.238282 0 14.144532l57.515625 57.511718c1.949218 1.953125 4.511718 2.929688 7.070312 2.929688s5.117188-.976563 7.070313-2.929688c3.90625-3.90625 3.90625-10.238281 0-14.140625l-50.441407-50.441406 50.441407-50.441406c3.90625-3.90625 3.90625-10.238281 0-14.144531zm0 0"/><path d="m250.804688 190.347656c-5.234376-1.757812-10.90625 1.0625-12.664063 6.296875l-65.332031 194.433594c-1.757813 5.234375 1.0625 10.90625 6.296875 12.664063 1.054687.355468 2.128906.523437 3.183593.523437 4.179688 0 8.074219-2.640625 9.480469-6.816406l65.328125-194.4375c1.757813-5.234375-1.058594-10.90625-6.292968-12.664063zm0 0"/><path d="m274.675781 361.628906c1.953125 1.949219 4.511719 2.929688 7.070313 2.929688s5.117187-.980469 7.070312-2.929688l57.511719-57.511718c3.90625-3.90625 3.90625-10.238282 0-14.144532l-57.511719-57.511718c-3.90625-3.902344-10.234375-3.902344-14.140625 0-3.90625 3.90625-3.90625 10.238281 0 14.144531l50.441407 50.4375-50.441407 50.441406c-3.90625 3.90625-3.90625 10.238281 0 14.144531zm0 0"/><path d="m214.953125 492c-5.507813 0-10 4.492188-10 10s4.492187 10 10 10 10-4.492188 10-10-4.492187-10-10-10zm0 0"/></g></svg>