<?xml version="1.0" encoding="UTF-8"?>
<svg xmlns="http://www.w3.org/2000/svg" viewBox="0 0 64 64" width="512" height="512"><g id="coding-programer-web_design-programing-developer" data-name="coding-programer-web design-programing-developer"><path d="M29.168,17.555a1,1,0,0,0,1.387.277l3-2a1,1,0,0,0,0-1.664l-3-2a1,1,0,0,0-1.11,1.664L31.2,15l-1.752,1.168A1,1,0,0,0,29.168,17.555Z"/><path d="M22.5,18.868A.988.988,0,0,0,23,19a1,1,0,0,0,.869-.5l4-7a1,1,0,1,0-1.736-.992l-4,7A1,1,0,0,0,22.5,18.868Z"/><path d="M22,23h2a1,1,0,0,0,0-2H22a1,1,0,0,0,0,2Z"/><path d="M22,27H36a1,1,0,0,0,0-2H22a1,1,0,0,0,0,2Z"/><path d="M27,22a1,1,0,0,0,1,1H42a1,1,0,0,0,0-2H28A1,1,0,0,0,27,22Z"/><path d="M42,25H40a1,1,0,0,0,0,2h2a1,1,0,0,0,0-2Z"/><path d="M22,31h2a1,1,0,0,0,0-2H22a1,1,0,0,0,0,2Z"/><path d="M42,29H28a1,1,0,0,0,0,2H42a1,1,0,0,0,0-2Z"/><path d="M58,38.84V5a3.009,3.009,0,0,0-3-3H9A3.009,3.009,0,0,0,6,5V38.84l-4,12V53a3.009,3.009,0,0,0,3,3h7v.17a2.956,2.956,0,0,0,.88,2.12l.83.83a.99.99,0,0,1,.29.71V61a1,1,0,0,0,2,0V59.83a2.956,2.956,0,0,0-.88-2.12l-.83-.83a.99.99,0,0,1-.29-.71V46.5a.5.5,0,0,1,1,0V50a1,1,0,0,0,2,0V44.5a.5.5,0,0,1,1,0V50a1,1,0,0,0,2,0V43.5a.5.5,0,0,1,1,0V50a1,1,0,0,0,2,0V44.5a.5.5,0,0,1,1,0V53a1,1,0,0,0,2,0V50h.5a.5.5,0,0,1,.5.5v5.67a.99.99,0,0,1-.29.71l-.83.83A2.956,2.956,0,0,0,25,59.83V61a1,1,0,0,0,2,0V59.83a.99.99,0,0,1,.29-.71l.83-.83A2.956,2.956,0,0,0,29,56.17V56h6v.17a2.956,2.956,0,0,0,.88,2.12l.83.83a.99.99,0,0,1,.29.71V61a1,1,0,0,0,2,0V59.83a2.956,2.956,0,0,0-.88-2.12l-.83-.83a.99.99,0,0,1-.29-.71V50.5a.5.5,0,0,1,.5-.5H38v3a1,1,0,0,0,2,0V44.5a.5.5,0,0,1,1,0V50a1,1,0,0,0,2,0V43.5a.5.5,0,0,1,1,0V50a1,1,0,0,0,2,0V44.5a.5.5,0,0,1,1,0V50a1,1,0,0,0,2,0V46.5a.5.5,0,0,1,1,0v9.67a.99.99,0,0,1-.29.71l-.83.83A2.956,2.956,0,0,0,48,59.83V61a1,1,0,0,0,2,0V59.83a.99.99,0,0,1,.29-.71l.83-.83A2.956,2.956,0,0,0,52,56.17V56h7a3.009,3.009,0,0,0,3-3V50.84ZM8,5A1,1,0,0,1,9,4H55a1,1,0,0,1,1,1V38H8Zm4,49H5a1,1,0,0,1-1-1V52h8Zm23,0H29V52h6ZM49.5,44a2.352,2.352,0,0,0-.54.06A2.5,2.5,0,0,0,46.5,42a2.429,2.429,0,0,0-.89.17,2.488,2.488,0,0,0-4.22,0A2.429,2.429,0,0,0,40.5,42,2.5,2.5,0,0,0,38,44.5V48h-.5a2.5,2.5,0,0,0-2.45,2h-6.1a2.5,2.5,0,0,0-2.45-2H26V44.5A2.5,2.5,0,0,0,23.5,42a2.429,2.429,0,0,0-.89.17,2.488,2.488,0,0,0-4.22,0A2.429,2.429,0,0,0,17.5,42a2.5,2.5,0,0,0-2.46,2.06A2.352,2.352,0,0,0,14.5,44,2.5,2.5,0,0,0,12,46.5V50H4.39L7.72,40H56.28l3.33,10H52V46.5A2.5,2.5,0,0,0,49.5,44ZM60,53a1,1,0,0,1-1,1H52V52h8Z"/><path d="M53,6H11a1,1,0,0,0-1,1V35a1,1,0,0,0,1,1H53a1,1,0,0,0,1-1V7A1,1,0,0,0,53,6ZM52,34H12V8H52Z"/><path d="M11,42H10a1,1,0,0,0,0,2h1a1,1,0,0,0,0-2Z"/><path d="M10,46H9a1,1,0,0,0,0,2h1a1,1,0,0,0,0-2Z"/><path d="M53,44h1a1,1,0,0,0,0-2H53a1,1,0,0,0,0,2Z"/><path d="M54,46a1,1,0,0,0,0,2h1a1,1,0,0,0,0-2Z"/><path d="M30,42H29a1,1,0,0,0,0,2h1a1,1,0,0,0,0-2Z"/><path d="M35,42H34a1,1,0,0,0,0,2h1a1,1,0,0,0,0-2Z"/><path d="M30,46H29a1,1,0,0,0,0,2h1a1,1,0,0,0,0-2Z"/><path d="M35,46H34a1,1,0,0,0,0,2h1a1,1,0,0,0,0-2Z"/><path d="M20.832,17.555a1,1,0,0,1-1.387.277l-3-2a1,1,0,0,1,0-1.664l3-2a1,1,0,1,1,1.11,1.664L18.8,15l1.752,1.168A1,1,0,0,1,20.832,17.555Z"/></g></svg>
