<?xml version="1.0" encoding="iso-8859-1"?>
<!-- Generator: Adobe Illustrator 18.0.0, SVG Export Plug-In . SVG Version: 6.00 Build 0)  -->
<!DOCTYPE svg PUBLIC "-//W3C//DTD SVG 1.1//EN" "http://www.w3.org/Graphics/SVG/1.1/DTD/svg11.dtd">
<svg version="1.1" id="Capa_1" xmlns="http://www.w3.org/2000/svg" xmlns:xlink="http://www.w3.org/1999/xlink" x="0px" y="0px"
	 viewBox="0 0 299.74 299.74" style="enable-background:new 0 0 299.74 299.74;" xml:space="preserve">
<g>
	<path d="M217.635,225.419l72.711,72.709c1.074,1.074,2.482,1.611,3.891,1.611s2.816-0.537,3.891-1.611
		c2.15-2.148,2.15-5.633,0-7.781l-72.709-72.711c22.104-24.014,34.217-54.98,34.217-87.814c0-34.676-13.504-67.277-38.023-91.797
		c-24.518-24.52-57.117-38.023-91.789-38.023c-34.678,0-67.277,13.504-91.799,38.023C13.504,62.544,0,95.143,0,129.821
		c0,34.676,13.504,67.275,38.025,91.793c24.52,24.52,57.119,38.021,91.797,38.021C162.654,259.635,193.621,247.522,217.635,225.419z
		 M11.006,129.821c0-65.514,53.301-118.814,118.816-118.814c65.51,0,118.807,53.301,118.807,118.814
		c0,46.281-26.604,86.463-65.318,106.066v-59.076c0-20.396-16.592-36.99-36.988-36.99h-33.01c-20.395,0-36.986,16.594-36.986,36.99
		v59.074C37.609,216.282,11.006,176.102,11.006,129.821z M87.332,176.811c0-14.328,11.654-25.984,25.98-25.984h33.01
		c14.326,0,25.982,11.656,25.982,25.984v63.959c-13.199,5.072-27.52,7.859-42.482,7.859c-14.967,0-29.289-2.789-42.49-7.861V176.811
		z"/>
	<path d="M129.686,134.551c20.971,0,38.033-17.061,38.033-38.031c0-20.977-17.063-38.043-38.033-38.043
		c-20.973,0-38.033,17.066-38.033,38.043C91.652,117.491,108.713,134.551,129.686,134.551z M129.686,69.483
		c14.902,0,27.027,12.129,27.027,27.037c0,14.902-12.125,27.025-27.027,27.025c-14.902,0-27.027-12.123-27.027-27.025
		C102.658,81.612,114.783,69.483,129.686,69.483z"/>
</g>
<g>
</g>
<g>
</g>
<g>
</g>
<g>
</g>
<g>
</g>
<g>
</g>
<g>
</g>
<g>
</g>
<g>
</g>
<g>
</g>
<g>
</g>
<g>
</g>
<g>
</g>
<g>
</g>
<g>
</g>
</svg>
