<svg id="Layer_3" enable-background="new 0 0 64 64" height="512" viewBox="0 0 64 64" width="512" xmlns="http://www.w3.org/2000/svg"><path d="m62.471 24.118-30-16c-.295-.157-.646-.157-.941 0l-30 16c-.327.174-.53.513-.53.882s.203.708.529.882l8.471 4.518v12.6h2v-11.533l3 1.6v6.075c-1.721.447-3 1.999-3 3.858 0 .914.32 1.747.838 2.422-.546 1.867-.838 3.792-.838 5.74v2.838c0 .379.214.725.553.895l1.105.553c.724.361 1.533.552 2.342.552s1.618-.191 2.342-.553l1.105-.553c.339-.169.553-.515.553-.894v-2.838c0-1.948-.292-3.873-.838-5.74.518-.675.838-1.508.838-2.422 0-1.859-1.279-3.411-3-3.858v-5.008l14.529 7.749c.148.078.309.117.471.117s.323-.039.471-.117l19.529-10.416v11.039c-5.562 4.191-12.432 6.494-19.401 6.494h-1.197c-3.433 0-6.827-.545-10.089-1.62l-.625 1.9c3.462 1.141 7.068 1.72 10.713 1.72h1.197c7.574 0 15.037-2.561 21.016-7.211.243-.189.386-.48.386-.789v-12.6l8.471-4.518c.326-.174.529-.513.529-.882s-.203-.708-.529-.882zm-44.471 29.264-.553.276c-.895.447-2 .447-2.895 0l-.552-.276v-2.22c0-1.503.183-2.992.544-4.446.452.178.941.284 1.456.284s1.004-.106 1.456-.284c.361 1.454.544 2.943.544 4.446zm0-10.382c0 1.103-.897 2-2 2s-2-.897-2-2 .897-2 2-2 2 .897 2 2zm14-3.134-14.312-7.633 12.389-6.607c.569.232 1.217.374 1.923.374 2.243 0 4-1.318 4-3s-1.757-3-4-3-4 1.318-4 3c0 .457.139.883.373 1.268l-12.81 6.832-11.438-6.1 27.875-14.867 27.875 14.867zm-2-16.866c0-.408.779-1 2-1s2 .592 2 1-.779 1-2 1-2-.592-2-1z"/></svg>