<svg id="Layer_1" enable-background="new 0 0 512 512" height="512" viewBox="0 0 512 512" width="512" xmlns="http://www.w3.org/2000/svg"><g><path d="m504.5 46.52c4.143 0 7.5-3.358 7.5-7.5v-31.515c.004-4.085-3.416-7.505-7.5-7.505h-32.241c-4.143 0-7.5 3.358-7.5 7.5s3.357 7.5 7.5 7.5h14.134l-101.102 101.103-44.193-44.194c-2.892-2.891-7.715-2.891-10.607 0l-44.529 44.529c-21.44-41.745-50.118-82.522-84.807-114.455-3.396-2.64-6.794-2.643-10.194-.009-62.623 58.298-110.907 141.559-119.455 227.162l-32.297 41.529c-3.487-6.612-10.429-11.132-18.409-11.132-11.469 0-20.8 9.331-20.8 20.8v82.073c0 11.47 9.332 20.801 20.802 20.8 11.469 0 20.8-9.331 20.8-20.8v-6.031l51.837-22.472c10.898.678 22.054.016 32.973.016-7.659 11.421-14.195 24.813-19.212 39.474-1.64 4.792 2.031 9.929 7.096 9.929h26.367c-2.03 6.039-3.086 12.404-3.086 18.852 0 29.78 46.877 98.805 52.223 106.577 2.933 4.265 9.426 4.264 12.359 0 5.346-7.772 52.224-76.797 52.224-106.577 0-6.448-1.056-12.813-3.086-18.852h26.367c5.061 0 8.733-5.129 7.099-9.92-5.003-14.679-11.511-28.073-19.13-39.482 10.922 0 21.987.513 32.896-.012l51.829 22.468v6.031c0 11.469 9.33 20.8 20.799 20.8 11.47.002 20.802-9.33 20.802-20.8v-68.759h37.041c9.386 0 9.813-15 0-15h-37.117c-1.86-20.754-29.437-26.217-39.134-7.982l-32.346-41.592c-1.798-19.696-5.903-39.16-11.825-58.02l27.216-27.215 44.193 44.194c2.892 2.891 7.715 2.891 10.607 0l106.406-106.408v197.022h-24.741c-9.386 0-9.813 15 0 15h32.241c4.143 0 7.5-3.358 7.5-7.5v-222.629c0-6.552-8.171-9.933-12.804-5.303l-113.905 113.906-44.193-44.194c-2.929-2.929-7.678-2.93-10.606 0l-27.334 27.332c-3.043-8.176-6.459-16.368-10.242-24.562l42.879-42.879 44.193 44.194c2.892 2.891 7.715 2.891 10.607 0l106.405-106.405v13.413c0 4.142 3.357 7.5 7.5 7.5zm-477.898 315.886c-.244 7.666-11.36 7.662-11.602 0v-82.073c.244-7.666 11.36-7.662 11.602 0zm338.754-82.073c.244-7.665 11.359-7.663 11.601 0v82.073c0 3.198-2.602 5.8-5.799 5.8h-.003c-3.197 0-5.799-2.602-5.799-5.8zm-47.14 10.199c1.977-11.741 3.038-23.662 3.198-35.726l28.943 37.216v48.003l-41.668-18.063c4.5-10.038 7.7-20.574 9.527-31.43zm-122.172-272.533c10.485 10.567 35.456 37.318 58.847 74.329h-117.852c23.46-37.027 48.496-63.77 59.005-74.329zm-154.442 322.026v-48.003l28.949-37.225c.187 12.075 1.281 24.007 3.298 35.758 1.86 10.848 5.06 21.359 9.527 31.361zm154.377 150.989c-16.102-24.619-43.402-70.24-43.402-88.841 0-6.557 1.454-12.997 4.227-18.852h78.352c2.773 5.855 4.227 12.294 4.227 18.852-.001 18.601-27.303 64.222-43.404 88.841zm70.873-122.693h-141.728c5.429-13.201 12.197-24.905 19.9-34.402h102.022c7.66 9.479 14.395 21.182 19.806 34.402zm26.547-195.492c15.293 46.171 21.533 101.966.167 146.09h-195.052c-19.772-40.983-15.261-93.193-3.218-135.71 7.103-25.078 18.063-50.549 32.634-75.88h136.005c11.945 20.799 21.92 42.723 29.464 65.5z"/><path d="m195.979 135.836c-8.27 0-16.446 1.336-24.303 3.97-3.927 1.317-6.043 5.568-4.726 9.496 1.316 3.926 5.563 6.043 9.495 4.726 39.149-13.772 82.072 17.445 81.394 59.156.001 34.378-27.75 62.347-61.861 62.347-51.738.218-80.773-61.594-48.026-101.631 5.967-7.947-5.181-16.926-11.676-9.416-40.552 49.834-4.609 126.269 59.703 126.047 101.96-4.239 101.938-150.467 0-154.695z"/><path d="m195.979 264.505c28.13 0 51.016-23.022 51.016-51.321-2.806-68.085-99.235-68.066-102.031 0-.001 28.298 22.885 51.321 51.015 51.321zm0-87.642c19.859 0 36.016 16.293 36.016 36.321-1.982 48.187-70.057 48.173-72.031 0-.001-20.028 16.155-36.321 36.015-36.321z"/><path d="m63.444 388.96c-4.143 0-7.5 3.358-7.5 7.5v47.685c0 4.142 3.357 7.5 7.5 7.5s7.5-3.358 7.5-7.5v-47.685c0-4.142-3.357-7.5-7.5-7.5z"/><path d="m94.332 430.226c-4.143 0-7.5 3.358-7.5 7.5v66.774c0 4.142 3.357 7.5 7.5 7.5s7.5-3.358 7.5-7.5v-66.774c0-4.143-3.357-7.5-7.5-7.5z"/><path d="m328.513 388.96c-4.143 0-7.5 3.358-7.5 7.5v47.685c0 4.142 3.357 7.5 7.5 7.5s7.5-3.358 7.5-7.5v-47.685c0-4.142-3.358-7.5-7.5-7.5z"/><path d="m297.625 430.226c-4.143 0-7.5 3.358-7.5 7.5v66.774c0 4.142 3.357 7.5 7.5 7.5s7.5-3.358 7.5-7.5v-66.774c0-4.143-3.357-7.5-7.5-7.5z"/></g></svg>